<svg xmlns="http://www.w3.org/2000/svg" height="800" width="1200" viewBox="-44.7 -15.654225 387.4 93.92535"><path d="M67.872 0H.0019v62.6169L67.8721 0" fill="#44c8f5"/><path d="M33.9306 0H0v31.323L33.9306 0" fill="#231f20"/><path d="M162.6454 13.591l-8.8595 35.422h15.6533l8.8523-35.422h-15.646m-35.75 20.5299h-3.5899l5.788-10.2187 1.8774 10.2187zm-2.2272-20.5334l-20.131 35.4202H114.89l3.3416-5.904h14.3721l1.071 5.904h15.28L142.46 13.5875h-17.7917m109.4627.0035l-8.836 35.422h15.6496l8.8378-35.422H234.131m-6.995 0h-16.0392l-13.4262 11.587 2.9302-11.587h-15.0027l-8.836 35.422h14.9556l3.0553-12.2283 7.997 12.2284h18.1033l-13.408-18.551 19.6708-16.871M92.2545 29.6884s-1.0166 11.5053-10.8203 11.5053h-5.547l4.8855-19.1055h5.0342c1.8013.011 7.0148.4784 6.4476 7.6002zm-.7937-16.081l-4.0484-.0127H67.8268l-8.836 35.4075h19.4479l7.6944.0109c10.833 0 21.4938-8.064 21.4938-20.4156 0-14.5334-16.1661-14.9901-16.1661-14.9901m195.7044-.0218l-5.2208 20.8578-6.955-20.8578h-17.4075l-8.8433 35.4275h10.824l5.2715-21.0408 6.9768 21.0408h17.3331L298 13.5856h-10.8348" fill="#00a0e4"/></svg>