<svg xmlns="http://www.w3.org/2000/svg" height="800" width="1200" viewBox="-118.91685 -61.04425 1030.6127 366.2655"><path d="M688.361 164.774c.348-3.178.552-6.388.552-9.638 0-49.205-40.776-89.07-91.083-89.07-50.293 0-91.063 39.865-91.063 89.07 0 49.189 40.771 89.039 91.063 89.039 38.259 0 70.963-23.021 84.481-55.729l-39.257-6.878c-8.696 15.914-25.151 26.634-43.96 26.634-24.967 0-45.642-18.778-49.801-43.429h139.068zm-89.266-61.742c21.319 0 39.528 13.729 46.96 33.163h-93.977c7.412-19.433 25.661-33.163 47.017-33.163zm-163.32-33.235h46.512v171.18h-46.512zM459.048 0c-14.358 0-25.95 11.655-25.95 25.953 0 14.276 11.592 25.9 25.95 25.9 14.3 0 25.917-11.624 25.917-25.9C484.965 11.655 473.348 0 459.048 0M50.842 107.064V14.913H0v225.911h50.842v-92.155h100.256v92.155h50.884V14.913h-50.884v92.151zm310.185-37.188v9.185c-13.519-8.191-29.361-12.896-46.336-12.896-49.308 0-89.3 39.84-89.3 89.006 0 49.156 39.992 89.006 89.3 89.006a89.237 89.237 0 0045.262-12.27v8.918h45.384V69.876zM316.959 206.65c-28.777 0-52.04-23.027-52.04-51.459 0-28.456 23.262-51.5 52.04-51.5 28.77 0 52.071 23.044 52.071 51.5-.001 28.432-23.302 51.459-52.071 51.459zM785.085 53.899c-42.832 7.472-75.396 44.736-75.896 89.679v97.398h44.535l.023-99.229c0-22.716 17.053-41.463 39.032-44.153z" fill="#005BAA"/></svg>